<?xml version="1.0" encoding="UTF-8" standalone="no"?>
<!-- Created with Inkscape (http://www.inkscape.org/) -->

<svg
   width="97.631256mm"
   height="118.76995mm"
   viewBox="0 0 97.631256 118.76995"
   version="1.1"
   id="svg1"
   xml:space="preserve"
   xmlns="http://www.w3.org/2000/svg"
   xmlns:svg="http://www.w3.org/2000/svg"><defs
     id="defs1" /><g
     id="g10"
     transform="translate(-54.440255,-80.46481)"><path
       style="fill:#fcfdfd"
       d="m 59.53069,130.27937 12.693853,-40.211517 32.549217,-1.310429 41.25247,1.793913 C 144.05401,134.66108 105.2365,165.07151 105.2365,165.07151 l -46.391803,-4.51358 z m 5.623479,31.31346 c -2.068809,-0.67879 -3.920621,-2.39024 -4.506233,-4.16466 -0.266237,-0.80671 -0.300172,-3.68936 -0.158996,-13.50646 0.158783,-11.04144 0.237767,-12.70875 0.684858,-14.45685 1.976995,-7.72998 8.648742,-13.90713 17.694001,-16.3823 2.723814,-0.74535 9.308114,-0.81607 12.03969,-0.12932 8.804916,2.21367 15.730471,8.93398 18.052811,17.51781 0.35434,1.30969 0.64455,2.47055 0.64492,2.57969 3.6e-4,0.10914 -1.75551,0.20105 -3.90194,0.20425 -3.29948,0.005 -4.06617,0.0845 -4.96094,0.51465 -1.828592,0.87918 -2.860396,2.0361 -3.566213,3.99864 l -0.515737,1.43402 -0.0095,-1.73035 c -0.03026,-5.48608 -3.162,-9.81531 -8.244675,-11.39721 -5.30601,-1.65142 -11.260028,0.93606 -13.738425,5.9704 l -0.90309,1.83443 -0.179001,11.6572 c -0.119081,7.75499 -0.281151,11.92291 -0.484156,12.45095 -0.409458,1.06506 -1.757651,2.43895 -3.043042,3.10105 -1.140461,0.58744 -3.812996,0.86213 -4.904287,0.50406 z"
       id="path12" /><path
       style="fill:#f8af43"
       d="m 100.7325,161.41926 c -1.467921,-0.54336 -2.937533,-1.81365 -3.616977,-3.1264 -0.63734,-1.23141 -0.670009,-1.96286 -0.521773,-11.68222 0.04816,-3.15751 0.176646,-5.3278 0.297621,-5.02709 0.117084,0.29105 0.16122,0.61847 0.09808,0.72761 -0.06314,0.10914 -0.01847,0.20105 0.09925,0.20425 0.117728,0.003 0.557678,0.51802 0.977665,1.14404 1.533288,2.28547 3.029454,2.80255 8.137774,2.81243 2.47313,0.005 3.3789,-0.0815 3.47467,-0.33112 0.23032,-0.60019 0.20554,-10.06939 -0.0301,-11.50252 l -0.22839,-1.38906 h 6.92391 c 7.44317,0 8.41269,-0.13062 10.77677,-1.45194 3.04357,-1.70108 5.39373,-5.33676 5.68342,-8.7922 0.40592,-4.84175 -2.03292,-9.54307 -6.02428,-11.61293 -1.40729,-0.7298 -1.53471,-0.74553 -7.51697,-0.92772 -3.34698,-0.10194 -8.58573,-0.19694 -11.64167,-0.21112 -3.10723,-0.0144 -6.02273,-0.15322 -6.61459,-0.31488 -1.501777,-0.41022 -2.545631,-1.2874 -3.399943,-2.85705 -1.557745,-2.86209 -1.125246,-5.97696 1.14514,-8.24735 1.840103,-1.840096 2.051133,-1.862892 15.572143,-1.682136 14.65607,0.19593 16.15131,0.43475 20.50136,3.274496 5.74632,3.75124 9.77825,10.16806 11.04831,17.58339 0.39872,2.32792 0.17282,7.6513 -0.42214,9.94777 -0.5451,2.10403 -2.63935,6.55239 -3.90832,8.30159 -3.26974,4.50717 -8.01596,7.85508 -13.28447,9.37068 -3.16247,0.90975 -3.77194,0.96307 -11.1125,0.97208 l -7.14375,0.009 -0.13769,5.42396 c -0.15108,5.95143 -0.23026,6.27991 -1.89026,7.84173 -0.48536,0.45665 -1.29824,1.04016 -1.8064,1.29668 -1.23724,0.62456 -4.0675,0.75278 -5.43591,0.24625 z"
       id="path11" /><path
       style="fill:#004588"
       d="M 99.8163,198.71999 C 89.095606,195.9514 78.835599,189.83558 70.266433,181.1058 62.148525,172.83574 57.098876,163.70186 55.047801,153.57812 l -0.607544,-2.99873 v -35.0573 -35.057288 h 48.815623 48.81563 v 35.321878 35.32187 l -0.62028,2.77146 c -2.21481,9.89588 -7.54054,19.23944 -15.70112,27.54632 -8.24932,8.3972 -18.73626,14.763 -27.99631,16.99437 -4.1976,1.01149 -5.05458,1.0438 -7.9375,0.29929 z M 70.058456,161.08877 c 1.285391,-0.6621 2.633584,-2.03599 3.043042,-3.10105 0.203005,-0.52804 0.365075,-4.69596 0.484156,-12.45095 l 0.179001,-11.6572 0.90309,-1.83443 c 2.478397,-5.03434 8.432415,-7.62182 13.738425,-5.9704 5.082675,1.5819 8.214412,5.91113 8.244675,11.39721 l 0.0095,1.73035 0.519071,-1.44349 c 0.602002,-1.67411 2.051322,-3.30376 3.562884,-4.00619 0.87245,-0.40544 1.71778,-0.49284 4.81302,-0.49763 2.7186,-0.004 3.81378,0.0855 3.96875,0.32492 0.24985,0.38603 0.41926,11.72277 0.18614,12.45722 -0.14707,0.46339 -0.42515,0.48925 -4.16588,0.38742 -4.45192,-0.12118 -5.29857,-0.34941 -6.723043,-1.81226 -0.474472,-0.48726 -1.159082,-1.48073 -1.521355,-2.20772 l -0.658677,-1.32179 -0.06615,5.54205 c -0.118119,9.89662 -0.09273,10.44482 0.540369,11.66803 1.192972,2.30494 3.901316,3.71188 6.663246,3.46144 1.73386,-0.15723 2.94166,-0.69779 4.19604,-1.87797 1.66,-1.56182 1.73918,-1.8903 1.89026,-7.84173 l 0.13769,-5.42396 7.14375,-0.009 c 7.34056,-0.009 7.95003,-0.0623 11.1125,-0.97208 5.26851,-1.5156 10.01473,-4.86351 13.28447,-9.37068 1.26897,-1.7492 3.36322,-6.19756 3.90832,-8.30159 0.59496,-2.29647 0.82086,-7.61985 0.42214,-9.94777 -1.27006,-7.41533 -5.30199,-13.83215 -11.04831,-17.58339 -4.35006,-2.839746 -5.8453,-3.078566 -20.50137,-3.274496 -13.52101,-0.180756 -13.73204,-0.15796 -15.572137,1.682136 -2.270386,2.27039 -2.702885,5.38526 -1.14514,8.24735 0.854312,1.56965 1.898166,2.44683 3.399937,2.85705 0.59186,0.16166 3.50736,0.30045 6.61459,0.31488 3.05594,0.0142 8.29469,0.10918 11.64167,0.21112 5.98226,0.18219 6.10968,0.19792 7.51697,0.92772 2.83798,1.47174 5.21219,4.73283 5.8583,8.04667 1.16176,5.95864 -2.27871,11.70443 -8.03131,13.41277 -1.0396,0.30873 -2.85899,0.39763 -8.13762,0.39763 h -6.79866 l -0.57957,-2.31511 c -2.19623,-8.77286 -9.232184,-15.73028 -18.1838,-17.98083 -2.731576,-0.68675 -9.315876,-0.61603 -12.03969,0.12932 -9.045259,2.47517 -15.717006,8.65232 -17.694001,16.3823 -0.447091,1.7481 -0.526075,3.41541 -0.684858,14.45685 -0.141176,9.8171 -0.107241,12.69975 0.158996,13.50646 0.585612,1.77442 2.437424,3.48587 4.506233,4.16466 1.091291,0.35807 3.763826,0.0834 4.904287,-0.50406 z"
       id="path10" /></g></svg>
